<mxfile host="app.diagrams.net" modified="2023-11-02T08:01:31.851Z" agent="Mozilla/5.0 (Windows NT 10.0; Win64; x64) AppleWebKit/537.36 (KHTML, like Gecko) Chrome/118.0.0.0 Safari/537.36" etag="BVgXIhrDULHNDJ2nRoE-" version="22.0.8" type="github">
  <diagram name="第 1 页" id="-oRvCiJH-ccSd-tmdgWp">
    <mxGraphModel dx="778" dy="416" grid="1" gridSize="10" guides="1" tooltips="1" connect="1" arrows="1" fold="1" page="1" pageScale="1" pageWidth="827" pageHeight="1169" math="0" shadow="0">
      <root>
        <mxCell id="0" />
        <mxCell id="1" parent="0" />
        <mxCell id="prTjhhe098Utsomd_alY-4" style="edgeStyle=orthogonalEdgeStyle;rounded=0;orthogonalLoop=1;jettySize=auto;html=1;exitX=1;exitY=0.5;exitDx=0;exitDy=0;entryX=0;entryY=0.5;entryDx=0;entryDy=0;" edge="1" parent="1" source="prTjhhe098Utsomd_alY-1" target="prTjhhe098Utsomd_alY-2">
          <mxGeometry relative="1" as="geometry" />
        </mxCell>
        <mxCell id="prTjhhe098Utsomd_alY-1" value="登录" style="rounded=1;whiteSpace=wrap;html=1;" vertex="1" parent="1">
          <mxGeometry x="10" y="180" width="90" height="50" as="geometry" />
        </mxCell>
        <mxCell id="prTjhhe098Utsomd_alY-6" style="edgeStyle=orthogonalEdgeStyle;rounded=0;orthogonalLoop=1;jettySize=auto;html=1;exitX=1;exitY=0.5;exitDx=0;exitDy=0;entryX=0;entryY=0.5;entryDx=0;entryDy=0;entryPerimeter=0;" edge="1" parent="1" source="prTjhhe098Utsomd_alY-2" target="prTjhhe098Utsomd_alY-8">
          <mxGeometry relative="1" as="geometry">
            <mxPoint x="510" y="205" as="targetPoint" />
          </mxGeometry>
        </mxCell>
        <mxCell id="prTjhhe098Utsomd_alY-2" value="后端服务" style="rounded=1;whiteSpace=wrap;html=1;" vertex="1" parent="1">
          <mxGeometry x="260" y="180" width="90" height="50" as="geometry" />
        </mxCell>
        <mxCell id="prTjhhe098Utsomd_alY-5" value="密码MD5加密后传输" style="text;html=1;align=center;verticalAlign=middle;resizable=0;points=[];autosize=1;strokeColor=none;fillColor=none;" vertex="1" parent="1">
          <mxGeometry x="115" y="178" width="130" height="30" as="geometry" />
        </mxCell>
        <mxCell id="prTjhhe098Utsomd_alY-7" value="密码MD5加密后比对" style="text;html=1;align=center;verticalAlign=middle;resizable=0;points=[];autosize=1;strokeColor=none;fillColor=none;" vertex="1" parent="1">
          <mxGeometry x="370" y="180" width="130" height="30" as="geometry" />
        </mxCell>
        <mxCell id="prTjhhe098Utsomd_alY-14" style="edgeStyle=orthogonalEdgeStyle;rounded=0;orthogonalLoop=1;jettySize=auto;html=1;exitX=1;exitY=0.5;exitDx=0;exitDy=0;exitPerimeter=0;entryX=0;entryY=0.5;entryDx=0;entryDy=0;" edge="1" parent="1" source="prTjhhe098Utsomd_alY-8" target="prTjhhe098Utsomd_alY-10">
          <mxGeometry relative="1" as="geometry" />
        </mxCell>
        <mxCell id="prTjhhe098Utsomd_alY-8" value="数据库" style="shape=cylinder3;whiteSpace=wrap;html=1;boundedLbl=1;backgroundOutline=1;size=15;" vertex="1" parent="1">
          <mxGeometry x="510" y="165" width="60" height="80" as="geometry" />
        </mxCell>
        <mxCell id="prTjhhe098Utsomd_alY-9" value="用户表" style="swimlane;fontStyle=0;childLayout=stackLayout;horizontal=1;startSize=30;horizontalStack=0;resizeParent=1;resizeParentMax=0;resizeLast=0;collapsible=1;marginBottom=0;whiteSpace=wrap;html=1;" vertex="1" parent="1">
          <mxGeometry x="650" y="160" width="150" height="120" as="geometry" />
        </mxCell>
        <mxCell id="prTjhhe098Utsomd_alY-10" value="user_name" style="text;strokeColor=none;fillColor=none;align=left;verticalAlign=middle;spacingLeft=4;spacingRight=4;overflow=hidden;points=[[0,0.5],[1,0.5]];portConstraint=eastwest;rotatable=0;whiteSpace=wrap;html=1;" vertex="1" parent="prTjhhe098Utsomd_alY-9">
          <mxGeometry y="30" width="150" height="30" as="geometry" />
        </mxCell>
        <mxCell id="prTjhhe098Utsomd_alY-11" value="md5(md5(password))" style="text;strokeColor=none;fillColor=none;align=left;verticalAlign=middle;spacingLeft=4;spacingRight=4;overflow=hidden;points=[[0,0.5],[1,0.5]];portConstraint=eastwest;rotatable=0;whiteSpace=wrap;html=1;" vertex="1" parent="prTjhhe098Utsomd_alY-9">
          <mxGeometry y="60" width="150" height="30" as="geometry" />
        </mxCell>
        <mxCell id="prTjhhe098Utsomd_alY-12" value="......" style="text;strokeColor=none;fillColor=none;align=left;verticalAlign=middle;spacingLeft=4;spacingRight=4;overflow=hidden;points=[[0,0.5],[1,0.5]];portConstraint=eastwest;rotatable=0;whiteSpace=wrap;html=1;" vertex="1" parent="prTjhhe098Utsomd_alY-9">
          <mxGeometry y="90" width="150" height="30" as="geometry" />
        </mxCell>
        <mxCell id="prTjhhe098Utsomd_alY-22" value="客户端" style="shape=umlLifeline;perimeter=lifelinePerimeter;whiteSpace=wrap;html=1;container=1;dropTarget=0;collapsible=0;recursiveResize=0;outlineConnect=0;portConstraint=eastwest;newEdgeStyle={&quot;curved&quot;:0,&quot;rounded&quot;:0};size=25;" vertex="1" parent="1">
          <mxGeometry x="220" y="585" width="100" height="335" as="geometry" />
        </mxCell>
        <mxCell id="prTjhhe098Utsomd_alY-23" value="网关" style="shape=umlLifeline;perimeter=lifelinePerimeter;whiteSpace=wrap;html=1;container=1;dropTarget=0;collapsible=0;recursiveResize=0;outlineConnect=0;portConstraint=eastwest;newEdgeStyle={&quot;curved&quot;:0,&quot;rounded&quot;:0};size=25;" vertex="1" parent="1">
          <mxGeometry x="364" y="585" width="100" height="335" as="geometry" />
        </mxCell>
        <mxCell id="prTjhhe098Utsomd_alY-24" value="资源服务" style="shape=umlLifeline;perimeter=lifelinePerimeter;whiteSpace=wrap;html=1;container=1;dropTarget=0;collapsible=0;recursiveResize=0;outlineConnect=0;portConstraint=eastwest;newEdgeStyle={&quot;curved&quot;:0,&quot;rounded&quot;:0};size=25;" vertex="1" parent="1">
          <mxGeometry x="500" y="585" width="100" height="335" as="geometry" />
        </mxCell>
        <mxCell id="prTjhhe098Utsomd_alY-25" value="认证服务" style="shape=umlLifeline;perimeter=lifelinePerimeter;whiteSpace=wrap;html=1;container=1;dropTarget=0;collapsible=0;recursiveResize=0;outlineConnect=0;portConstraint=eastwest;newEdgeStyle={&quot;curved&quot;:0,&quot;rounded&quot;:0};size=25;" vertex="1" parent="1">
          <mxGeometry x="630" y="585" width="100" height="335" as="geometry" />
        </mxCell>
      </root>
    </mxGraphModel>
  </diagram>
</mxfile>
